<?xml version="1.0" encoding="UTF-8"?>
<svg id="TEXTS" xmlns="http://www.w3.org/2000/svg" xmlns:xlink="http://www.w3.org/1999/xlink" viewBox="0 0 287.999 154.174">
  <defs>
    <style>
      .cls-1 {
        fill: url(#_Безымянный_градиент_33-3);
      }

      .cls-2 {
        fill: url(#_Безымянный_градиент_33-6);
      }

      .cls-3 {
        fill: url(#_Безымянный_градиент_33-8);
      }

      .cls-4 {
        fill: url(#_Безымянный_градиент_33-7);
      }

      .cls-5 {
        fill: #0778dd;
      }

      .cls-6 {
        fill: url(#_Безымянный_градиент_33-4);
      }

      .cls-7 {
        fill: url(#_Безымянный_градиент_5);
      }

      .cls-8 {
        fill: url(#_Безымянный_градиент_33);
      }

      .cls-9 {
        fill: url(#_Безымянный_градиент_33-5);
      }

      .cls-10 {
        fill: url(#_Безымянный_градиент_33-2);
      }
    </style>
    <linearGradient id="_Безымянный_градиент_33" data-name="Безымянный градиент 33" x1="34.815" y1="47.312" x2="269.865" y2="47.312" gradientUnits="userSpaceOnUse">
      <stop offset="0" stop-color="#35a0ff"/>
      <stop offset="1" stop-color="#390096"/>
    </linearGradient>
    <linearGradient id="_Безымянный_градиент_33-2" data-name="Безымянный градиент 33" x1="18.375" y1="57.143" x2="134.735" y2="57.143" xlink:href="#_Безымянный_градиент_33"/>
    <linearGradient id="_Безымянный_градиент_33-3" data-name="Безымянный градиент 33" x1="18.33" y1="59.709" x2="42.905" y2="59.709" xlink:href="#_Безымянный_градиент_33"/>
    <linearGradient id="_Безымянный_градиент_33-4" data-name="Безымянный градиент 33" x1="187.361" y1="67.754" x2="242.04" y2="67.754" xlink:href="#_Безымянный_градиент_33"/>
    <linearGradient id="_Безымянный_градиент_33-5" data-name="Безымянный градиент 33" x1="214.545" y1="56.993" x2="271.675" y2="81.058" xlink:href="#_Безымянный_градиент_33"/>
    <linearGradient id="_Безымянный_градиент_33-6" data-name="Безымянный градиент 33" y1="36.954" x2="135.285" y2="36.954" xlink:href="#_Безымянный_градиент_33"/>
    <linearGradient id="_Безымянный_градиент_33-7" data-name="Безымянный градиент 33" x1="199.585" y1="58.425" y2="58.425" xlink:href="#_Безымянный_градиент_33"/>
    <linearGradient id="_Безымянный_градиент_33-8" data-name="Безымянный градиент 33" x1="132.1" y1="64.786" x2="60.784" y2="56.667" xlink:href="#_Безымянный_градиент_33"/>
    <linearGradient id="_Безымянный_градиент_5" data-name="Безымянный градиент 5" x1="17.48" y1="92.204" x2="190.605" y2="92.204" gradientTransform="translate(31.009) skewX(-15.083)" gradientUnits="userSpaceOnUse">
      <stop offset="0" stop-color="#e0e0e0"/>
      <stop offset=".748" stop-color="#3d3e3f"/>
      <stop offset="1" stop-color="#ebedec"/>
    </linearGradient>
  </defs>
  <g>
    <path class="cls-8" d="m257.735,60.797c4.92,4.93,7.39,10.71-5.88,7.3-13.27-3.41-25.02-10.24-25.02-10.24,0,0,4.14-1.53,9.67-1.15l.06.01,1.83.2c-.45-.2-.96-.4-1.53-.6-.02,0-.05-.01-.07-.02-12.31-4.21-49.9-6.95-64.37-4.24-11.37-7.77-35.57-22.84-63.72-21.78-3.7.14-7.17.54-10.42,1.14h-.02c-22.14,4.04-33.81,16.99-33.81,16.99-11.2,0-25.25-4.99-29.64-10.63,4.54,3.53,50.05-9.86,70.14-11.56,11.36-.97,18.72-1.57,30.33,2.44,8.93,3.08,20.38,8.89,38.1,19.36,9.17-.55,17.94-.6,26.2-.29,41.7,1.53,70.28,12.03,70.28,12.03-5.31,1.14-12.13,1.04-12.13,1.04Z"/>
    <path class="cls-10" d="m134.735,60.067c-28.14,12.46-59.92,2.45-84.77-4.18-.01,0-.02-.01-.03-.01-12.87-3.42-23.87-5.94-31.56-3.98.48-.31,11.88-7.32,38.46-.94,12.1,2.91,24.28,5.4,36.12,7.1,14.73,2.13,28.93,3.04,41.78,2.01Z"/>
    <path class="cls-1" d="m18.354,58.362c4.775-4.775,18.029-2.217,24.551,0-11.609,8.739-25.232,5.478-24.551,0Z"/>
    <path class="cls-6" d="m187.361,72.383c12.522-16.727,38.149-12.683,54.679,1.659-19.37-8.986-42.895-8.041-54.679-1.659Z"/>
    <path class="cls-9" d="m270.905,62.56c2.935,12.326-2.739,24-8.413,32.804,4.529-19.076,3.375-27.245,1.223-32.136,3.45-.102,7.19-.668,7.19-.668Z"/>
    <path class="cls-2" d="m135.285,28.657c-15.39-3.02-24.22-1.09-37,2.76h-.02c-22.14,4.04-33.81,16.99-33.81,16.99-11.2,0-25.25-4.99-29.64-10.63,4.54,3.53,50.05-9.86,70.14-11.56,11.36-.97,18.72-1.57,30.33,2.44Z"/>
    <path class="cls-4" d="m257.735,60.797c4.92,4.93,7.39,10.71-5.88,7.3-13.27-3.41-25.02-10.24-25.02-10.24,0,0,4.14-1.53,9.67-1.15l.06.01,1.83.2c-.51-.2-1.02-.4-1.53-.6-.02,0-.05-.01-.07-.02-19.17-7.29-37.21-8.57-37.21-8.57,41.7,1.53,70.28,12.03,70.28,12.03-5.31,1.14-12.13,1.04-12.13,1.04Z"/>
    <path class="cls-3" d="m134.735,60.067c-28.14,12.46-59.92,2.45-84.77-4.18,16.01,4.27,16.19,1.16,42.99,2.17,14.73,2.13,28.93,3.04,41.78,2.01Z"/>
  </g>
  <g>
    <path class="cls-7" d="m26.882,80.177h3.11l-5.79,21.481h10.297l-.703,2.608h-13.407l6.493-24.09Z"/>
    <path class="cls-7" d="m50.439,80.177l-6.493,24.09h-3.11l6.493-24.09h3.11Z"/>
    <path class="cls-7" d="m52.954,104.267l6.493-24.09h3.396l4.438,12.188c1.026,2.824,1.737,5.361,2.216,7.828l.081-.036c.581-3.217,1.3-6.147,2.311-9.9l2.716-10.079h2.932l-6.493,24.09h-3.146l-4.356-12.224c-.958-2.681-1.824-5.433-2.337-8.042l-.117.036c-.64,3.038-1.349,5.933-2.428,9.936l-2.774,10.294h-2.932Z"/>
    <path class="cls-7" d="m98.68,103.194c-1.529.5-4.504,1.322-7.757,1.322-3.646,0-6.4-.929-8.153-3.181-1.533-2.002-1.953-5.219-.942-8.972,1.972-7.184,8.322-12.438,16.401-12.438,2.789,0,4.807.607,5.708,1.107l-1.435,2.538c-1.133-.572-2.616-1.037-5.048-1.037-5.863,0-10.671,3.646-12.299,9.687-1.647,6.112,1.062,9.722,6.675,9.722,2.038,0,3.509-.285,4.32-.643l1.937-7.185h-4.897l.675-2.502h7.937l-3.122,11.58Z"/>
    <path class="cls-7" d="m107.31,100.479c1.163.857,3.009,1.572,5.153,1.572,3.182,0,5.494-1.68,6.149-4.11.607-2.251-.333-3.538-3.249-4.79-3.557-1.394-5.439-3.431-4.524-6.826,1.011-3.753,4.874-6.541,9.557-6.541,2.467,0,4.1.572,5.009,1.18l-1.542,2.537c-.671-.428-2.087-1.144-4.268-1.144-3.289,0-5.07,1.966-5.514,3.61-.606,2.252.561,3.359,3.538,4.646,3.652,1.573,5.195,3.539,4.242,7.077-1.002,3.717-4.622,6.934-10.307,6.934-2.323,0-4.679-.679-5.734-1.537l1.489-2.608Z"/>
    <path class="cls-7" d="m144.966,103.481c-1.297.572-3.739,1.144-6.671,1.144-6.793,0-10.749-4.289-8.62-12.188,2.032-7.542,8.522-12.653,15.994-12.653,3.004,0,4.725.644,5.432,1.072l-1.436,2.538c-1.025-.572-2.59-1.001-4.592-1.001-5.648,0-10.376,3.61-12.081,9.937-1.59,5.897.786,9.687,6.649,9.687,1.895,0,3.931-.394,5.346-1.001l-.021,2.466Z"/>
    <path class="cls-7" d="m158.307,96.69l-4.546,7.577h-3.217l14.68-24.09h3.754l1.73,24.09h-3.326l-.531-7.577h-8.544Zm8.556-2.431l-.49-6.935c-.113-1.571-.085-3.002-.066-4.396h-.071c-.743,1.43-1.531,2.895-2.392,4.361l-4.237,6.969h7.257Z"/>
    <path class="cls-7" d="m184.225,80.498c1.659-.321,3.961-.5,6.105-.5,3.324,0,5.306.607,6.441,1.966.927,1.072,1.162,2.716.661,4.575-.856,3.181-3.428,5.29-6.196,6.146l-.029.108c1.686.643,2.331,2.358,2.229,4.86-.118,3.36-.173,5.683.078,6.612h-3.219c-.21-.679-.188-2.752-.057-5.754.18-3.324-.77-4.575-3.565-4.683h-2.932l-2.813,10.437h-3.109l6.406-23.769Zm.152,10.974h3.183c3.324,0,5.925-1.824,6.667-4.575.838-3.109-1.048-4.469-4.327-4.504-1.502,0-2.613.143-3.152.286l-2.37,8.793Z"/>
  </g>
  <g>
    <path class="cls-5" d="m21.45,116.332l-.686,3.418h4.931l-.238,1.205h-4.931l-.785,3.964h-1.4l1.961-9.806h6.92l-.238,1.219h-5.533Z"/>
    <path class="cls-5" d="m28.63,120.898c0-3.264,2.339-5.896,5.953-5.896,2.928,0,4.623,1.681,4.623,4.132,0,3.264-2.353,5.897-5.967,5.897-2.927,0-4.608-1.681-4.608-4.133Zm9.161-1.681c0-1.765-1.148-2.97-3.32-2.97-2.717,0-4.44,2.102-4.44,4.566,0,1.766,1.163,2.97,3.334,2.97,2.717,0,4.426-2.101,4.426-4.566Z"/>
    <path class="cls-5" d="m47.967,121.726l1.793,3.193h-1.484l-1.709-2.998h-2.886l-.588,2.998h-1.415l1.961-9.806h3.656c2.297,0,3.614,1.051,3.614,2.872,0,1.947-1.093,3.264-2.942,3.74Zm1.541-3.614c0-1.177-.84-1.779-2.339-1.779h-2.367l-.882,4.398h2.423c2.003,0,3.166-.896,3.166-2.619Z"/>
    <path class="cls-5" d="m62.078,116.332h-3.348l.238-1.219h8.11l-.252,1.219h-3.348l-1.723,8.587h-1.387l1.709-8.587Z"/>
    <path class="cls-5" d="m78.433,115.113l-1.961,9.806h-1.401l.868-4.343h-5.631l-.868,4.343h-1.401l1.961-9.806h1.401l-.841,4.202h5.631l.84-4.202h1.401Z"/>
    <path class="cls-5" d="m83.917,116.332l-.602,3.012h4.931l-.238,1.19h-4.931l-.63,3.166h5.729l-.238,1.219h-7.13l1.961-9.806h6.92l-.238,1.219h-5.533Z"/>
    <path class="cls-5" d="m105.732,121.852c0,2.031-1.695,3.067-4.258,3.067h-4.72l1.961-9.806h4.342c1.961,0,3.096.743,3.096,2.157,0,1.317-.771,2.199-1.807,2.592.854.294,1.387.967,1.387,1.989Zm-1.387.014c0-.994-.728-1.345-2.045-1.345h-3.278l-.645,3.264h3.194c1.765,0,2.773-.672,2.773-1.919Zm-4.468-5.617l-.63,3.138h2.872c1.541,0,2.578-.63,2.578-1.891,0-.854-.714-1.247-1.933-1.247h-2.886Z"/>
    <path class="cls-5" d="m111.861,116.332l-.602,3.012h4.931l-.238,1.19h-4.931l-.63,3.166h5.729l-.238,1.219h-7.13l1.961-9.806h6.92l-.238,1.219h-5.533Z"/>
    <path class="cls-5" d="m118.887,123.841l.616-1.121c.743.687,1.961,1.121,3.18,1.121,1.583,0,2.647-.603,2.647-1.667,0-2.046-5.028-.995-5.028-4.133,0-1.877,1.681-3.039,4.076-3.039,1.205,0,2.353.294,3.151.826l-.56,1.148c-.729-.519-1.667-.784-2.662-.784-1.611,0-2.633.687-2.633,1.723,0,2.06,5.029,1.079,5.029,4.062,0,1.905-1.709,3.054-4.146,3.054-1.499,0-2.956-.519-3.67-1.19Z"/>
    <path class="cls-5" d="m133.141,116.332h-3.348l.238-1.219h8.11l-.252,1.219h-3.348l-1.723,8.587h-1.387l1.709-8.587Z"/>
    <path class="cls-5" d="m146.23,115.113h3.838c2.97,0,4.693,1.583,4.693,4.021,0,3.46-2.438,5.785-6.107,5.785h-4.385l1.961-9.806Zm2.466,8.587c2.886,0,4.65-1.891,4.65-4.482,0-1.765-1.135-2.886-3.418-2.886h-2.55l-1.471,7.368h2.788Z"/>
    <path class="cls-5" d="m160.343,116.332l-.602,3.012h4.931l-.238,1.19h-4.931l-.631,3.166h5.729l-.238,1.219h-7.13l1.961-9.806h6.92l-.238,1.219h-5.533Z"/>
    <path class="cls-5" d="m174.835,122.468h-5.238l-1.555,2.451h-1.514l6.416-9.806h1.387l2.479,9.806h-1.387l-.589-2.451Zm-.28-1.121l-1.162-4.832-3.082,4.832h4.244Z"/>
    <path class="cls-5" d="m181.622,115.113h1.4l-1.723,8.587h5.323l-.238,1.219h-6.724l1.961-9.806Z"/>
  </g>
</svg>